<svg xmlns="http://www.w3.org/2000/svg" width="500" height="500" viewBox="0 0 500 500" version="1.1"><path d="" stroke="none" fill="#888484" fill-rule="evenodd"/><path d="M 229.597 38.607 C 178.577 47.820, 137.470 89.225, 128.548 140.385 C 126.564 151.762, 126.564 172.238, 128.548 183.615 C 137.538 235.168, 178.832 276.462, 230.385 285.452 C 241.762 287.436, 262.238 287.436, 273.615 285.452 C 325.168 276.462, 366.462 235.168, 375.452 183.615 C 377.436 172.238, 377.436 151.762, 375.452 140.385 C 366.462 88.832, 325.168 47.538, 273.615 38.548 C 262.593 36.626, 240.402 36.655, 229.597 38.607 M 222 289.111 C 185.129 293.295, 144.147 308.016, 113.500 328.084 C 66.637 358.772, 30.378 405.491, 13.067 457.490 C 8.269 471.901, 3 493.107, 3 498.004 C 3 499.993, 3.819 500, 250 500 C 496.181 500, 497 499.993, 497 498.004 C 497 493.107, 491.731 471.901, 486.933 457.490 C 472.281 413.476, 443.764 372.694, 406.862 342.977 C 369.993 313.287, 324.091 294.262, 276.789 289.067 C 265.583 287.836, 233.004 287.862, 222 289.111" stroke="none" fill="#848484" fill-rule="evenodd"/></svg>